<svg xmlns="http://www.w3.org/2000/svg" viewBox="0 0 369.465 88.26"><defs><style>.a{fill:#631348;}.b{fill:#34c3e8;}.c{fill:#621347;}</style></defs><title>icon</title><path class="a" d="M48.13,41.715L59.358,30.487a25.506,25.506,0,0,0,1.537-8.593S52.714,2.761,48.13,0V41.715Z"/><path class="a" d="M69.365,30.365A25.506,25.506,0,0,0,60.772,31.9L49.544,43.13H91.259C88.5,38.546,69.365,30.365,69.365,30.365Z"/><path class="a" d="M46.13,41.716V0C41.546,2.759,33.365,21.894,33.365,21.894A25.509,25.509,0,0,0,34.9,30.488Z"/><path class="a" d="M49.543,45.13L60.771,56.358a25.5,25.5,0,0,0,8.594,1.537S88.5,49.713,91.259,45.13H49.543Z"/><path class="a" d="M44.715,43.13L33.487,31.9a25.508,25.508,0,0,0-8.593-1.536S5.76,38.546,3,43.13H44.715Z"/><path class="a" d="M48.13,46.544V88.259c4.584-2.76,12.765-21.894,12.765-21.894a25.5,25.5,0,0,0-1.536-8.593Z"/><path class="a" d="M46.13,46.543L34.9,57.772a25.508,25.508,0,0,0-1.537,8.593S41.546,85.5,46.13,88.26V46.543Z"/><path class="a" d="M3,45.13c2.76,4.584,21.894,12.765,21.894,12.765a25.506,25.506,0,0,0,8.593-1.536L44.716,45.13H3Z"/><path class="b" d="M48.13,41.715L85.9,3.947c-4.711-.528-21.69-1.671-31.146,7.784a32.6,32.6,0,0,0-6.623,9.723V41.715Z"/><path class="b" d="M87.313,5.361L49.544,43.13H69.8a32.608,32.608,0,0,0,9.723-6.623C88.983,27.052,87.84,10.073,87.313,5.361Z"/><path class="b" d="M46.13,41.716V21.455a32.6,32.6,0,0,0-6.624-9.724C30.051,2.276,13.073,3.419,8.361,3.947Z"/><path class="b" d="M87.313,82.9c0.528-4.711,1.671-21.691-7.785-31.146A32.607,32.607,0,0,0,69.8,45.13H49.543Z"/><path class="b" d="M46.13,46.543L8.361,84.313c4.712,0.528,21.691,1.671,31.146-7.784A32.6,32.6,0,0,0,46.13,66.8V46.543Z"/><path class="b" d="M24.455,45.13a32.6,32.6,0,0,0-9.723,6.623C5.276,61.208,6.419,78.186,6.947,82.9L44.716,45.13H24.455Z"/><path class="b" d="M48.13,46.544V66.806a32.6,32.6,0,0,0,6.623,9.723c9.455,9.455,26.433,8.312,31.145,7.784Z"/><path class="b" d="M6.947,5.361c-0.528,4.712-1.671,21.691,7.784,31.146a32.608,32.608,0,0,0,9.723,6.623H44.715Z"/><path class="c" d="M161.846,20.124l-6.326,5.583q-3.331-4.637-6.784-4.637a4.127,4.127,0,0,0-2.75.9A2.621,2.621,0,0,0,144.916,24a3.47,3.47,0,0,0,.764,2.135,58,58,0,0,0,6.264,5.765q4.89,4.088,5.929,5.155a17.9,17.9,0,0,1,3.682,5.018,12.522,12.522,0,0,1,1.085,5.231,12,12,0,0,1-3.817,9.121,13.919,13.919,0,0,1-9.955,3.6,14.807,14.807,0,0,1-8.352-2.349,18.544,18.544,0,0,1-6.092-7.382l7.179-4.332q3.239,5.948,7.455,5.948a5.489,5.489,0,0,0,3.7-1.281,3.811,3.811,0,0,0,1.5-2.959,5.107,5.107,0,0,0-1.131-3.05,32.644,32.644,0,0,0-4.98-4.667q-7.333-5.978-9.473-9.228a11.721,11.721,0,0,1-2.139-6.482,10.6,10.6,0,0,1,3.558-8.007,12.343,12.343,0,0,1,8.78-3.34,13.853,13.853,0,0,1,6.4,1.556A23.323,23.323,0,0,1,161.846,20.124Z"/><path class="c" d="M176.725,14.024H185.3V43.04a15.042,15.042,0,0,0,.655,5.3,5.282,5.282,0,0,0,2.166,2.484,6.823,6.823,0,0,0,3.646.93,7.1,7.1,0,0,0,3.889-1.037,5.46,5.46,0,0,0,2.258-2.636,19.613,19.613,0,0,0,.625-6.111V14.024h8.571V40.776q0,6.772-.763,9.4a13.307,13.307,0,0,1-2.913,5.063,13.52,13.52,0,0,1-4.956,3.615,16.823,16.823,0,0,1-6.528,1.174,15.785,15.785,0,0,1-8.5-2.242,13.043,13.043,0,0,1-5.171-5.613q-1.556-3.371-1.556-11.393V14.024Z"/><path class="c" d="M222.658,14.024h8.48V58.895h-8.48V14.024Z"/><path class="c" d="M242.57,14.024h24.8v8.419H259.2V58.895h-8.663V22.443H242.57V14.024Z"/><path class="b" d="M283.827,14.024h8.321l10.4,31.3,10.5-31.3h8.316l7.527,44.871h-8.26l-4.812-28.338-9.532,28.338H298.76l-9.448-28.338-4.926,28.338h-8.328Z"/><path class="b" d="M341.971,14.024h24.494v8.358H350.45V30.5h16.015V38.7H350.45v11.8h16.015v8.389H341.971V14.024Z"/></svg>